# xmcd
#
# Track frame offsets: 
#        150
#        16150
#        36097
#        51332
#        68925
#        86195
#        102122
#        120397
#        135272
#        149267
#        167972
#        183842
#        203832
#        220220
#
# Disc length: 3193 seconds
#
# Revision: 4
# Processed by: cddbd v1.5.2PL0 Copyright (c) Steve Scherf et al.
# Submitted via: ExactAudioCopy v1.3
#
DISCID=c20c770e
DTITLE=Various Artist - These Colors Won't Run. A Veteran Tribute
DYEAR=1996
DGENRE=Country
TTITLE0=Bobby Bare - G. I. Joe
TTITLE1=Freddie Hart - Purple Heart
TTITLE2=Jeff Moore - Unknown Soldier
TTITLE3=B. J. Thomas - These Colors Won't Run
TTITLE4=Craig Harris - Field Of Stone
TTITLE5=Moe Bandy - Chiseled In The Wall
TTITLE6=Billy Parker - America, You're Beautiful To Me
TTITLE7=Charley Pride - Beyond The Wall
TTITLE8=Billy Walker - Forgotten Angels
TTITLE9=Johnny Paycheck - Prisoner Of War
TTITLE10=Michael Horton - Letter Home (Riders In The Sky)
TTITLE11=The Kendalls - It's Raining On My Hero
TTITLE12=Johnny Rodriguez - You're A Hero To Me
TTITLE13=Stan Garland - Like An Eagle
EXTD=
EXTT0=
EXTT1=
EXTT2=
EXTT3=
EXTT4=
EXTT5=
EXTT6=
EXTT7=
EXTT8=
EXTT9=
EXTT10=
EXTT11=
EXTT12=
EXTT13=
PLAYORDER=
